<svg width="252" height="56" viewBox="0 0 252 56" fill="none" xmlns="http://www.w3.org/2000/svg">
<path d="M7.928 34.4154C5.23848 34.4741 2.70048 35.3464 1.76767 35.7752C1.12397 35.9187 0.942131 38.9932 1.3194 40.2859C1.62121 41.3201 2.06551 41.4795 2.24993 41.4299C9.99568 39.3472 19.7368 40.861 23.6392 41.8782C33.3242 43.8304 42.2894 41.0756 45.5613 39.4543C46.1572 39.1991 46.4417 36.8445 46.5094 35.699C46.7144 33.4607 45.8895 33.3938 45.4515 33.6401C37.071 37.8632 27.6463 37.0335 23.9815 36.0908C24.505 35.8314 25.7713 33.9583 26.339 33.0542C27.0752 31.8575 27.8758 30.6271 28.3524 28.8818C28.8157 27.1851 29.7868 24.8793 30.1185 24.3847C34.4311 18.9773 38.3638 18.4597 39.791 18.8769C39.4534 23.3578 35.5172 26.1862 33.5913 27.0402C32.6709 27.258 30.7407 28.2872 30.3825 30.6617C30.0243 33.0362 31.1547 33.46 31.7647 33.3751C44.3065 31.213 46.9029 19.3277 46.6335 13.6554C36.5743 10.6648 29.9017 14.7529 27.8228 17.1708C25.5717 3.68005 11.6466 0.182524 4.96537 0.120107C4.02121 2.78661 2.32716 9.43784 3.10424 14.7107C3.88132 19.9836 6.4721 23.7424 7.67036 24.9627C8.60981 25.956 11.0908 28.1959 13.4991 29.2095C15.9074 30.223 16.8855 30.2567 17.0735 30.1468C17.5984 29.9661 18.7707 29.0675 19.2608 26.9186C19.7508 24.7697 18.6748 24.0406 18.0755 23.9447C16.6286 23.8591 13.165 22.5835 10.8855 18.1655C8.6059 13.7475 9.04435 8.89137 9.54852 7.01555C15.3274 7.50252 19.0014 11.8699 20.116 13.9927C21.5619 17.1635 24.0075 24.6041 22.223 28.9995C20.4386 33.3949 14.9106 34.4957 12.3697 34.4966C12.0098 34.4451 10.6175 34.3567 7.928 34.4154Z" fill="#007A4F"/>
<path d="M0.876841 47.0231C1.40023 46.547 6.42296 45.6064 10.057 45.4464C15.602 45.2023 19.2835 46.7692 24.1119 47.5573C28.9403 48.3454 31.5287 48.5229 36.18 47.7596C40.0164 47.1301 44.6561 44.5814 45.6595 44.7192C46.6628 44.8571 46.4065 49.4018 45.8948 50.1493C45.3832 50.8969 40.2664 52.6677 36.4233 53.3707C31.1224 54.3404 27.9953 53.736 22.6278 53.062C17.8086 52.4568 15.1679 51.2263 10.312 51.329C6.68712 51.4057 1.40333 52.8939 1.12006 52.6342C-0.496587 51.1519 0.35345 47.4991 0.876841 47.0231Z" fill="#80CA7B"/>
<path d="M81.3632 30.8982C81.3632 32.471 81.0849 33.8623 80.5284 35.0721C79.9961 36.2578 79.2581 37.2499 78.3144 38.0484C77.3949 38.8468 76.3302 39.4518 75.1204 39.8631C73.9105 40.2745 72.6402 40.4801 71.3094 40.4801C70.2931 40.4801 69.2526 40.3592 68.188 40.1172C67.1475 39.8994 66.1312 39.5607 65.1391 39.1009V16.7067H68.5146V22.2236C68.926 21.9816 69.4946 21.8122 70.2205 21.7154C70.9706 21.6186 71.6481 21.5702 72.253 21.5702C73.7291 21.5702 75.0236 21.8364 76.1367 22.3687C77.2739 22.9011 78.2297 23.6149 79.004 24.5102C79.7783 25.3813 80.359 26.3733 80.7462 27.4864C81.1575 28.5994 81.3632 29.7367 81.3632 30.8982ZM78.2418 31.4426C78.2418 30.2811 78.0845 29.3012 77.7699 28.5027C77.4554 27.68 77.0077 27.0146 76.427 26.5064C75.8463 25.9983 75.1325 25.6353 74.2856 25.4176C73.4629 25.1756 72.5313 25.0546 71.4908 25.0546C71.0795 25.0546 70.5714 25.103 69.9664 25.1998C69.3615 25.2966 68.8776 25.4418 68.5146 25.6353V36.4151C68.9986 36.6086 69.5309 36.7659 70.1116 36.8869C70.6923 36.9837 71.261 37.0321 71.8175 37.0321C72.616 37.0321 73.3782 36.9232 74.1041 36.7054C74.8542 36.4876 75.5196 36.1489 76.1004 35.6891C76.7053 35.2294 77.1892 34.6487 77.5522 33.947C77.9393 33.2453 78.1692 32.4105 78.2418 31.4426ZM95.2042 24.5828H93.462C92.7119 24.5828 91.9739 24.7037 91.248 24.9457C90.5463 25.1877 89.9172 25.5506 89.3607 26.0346C88.8283 26.4943 88.3928 27.0629 88.054 27.7405C87.7395 28.418 87.5822 29.1923 87.5822 30.0634V40.1535H84.2793V21.9695H87.5459V23.8569C87.7879 23.3245 88.1387 22.889 88.5984 22.5502C89.0582 22.2115 89.5663 21.9574 90.1229 21.788C90.6794 21.5944 91.2359 21.4735 91.7924 21.4251C92.3732 21.3525 92.8813 21.3162 93.3169 21.3162H95.1679L95.2042 24.5828ZM110.721 32.6766C110.721 33.5961 110.721 34.5035 110.721 35.3988C110.721 36.2699 110.709 37.0563 110.685 37.758C110.685 38.4355 110.685 38.992 110.685 39.4276C110.685 39.8389 110.685 40.0567 110.685 40.0809H107.346V38.1572C106.644 39.0283 105.797 39.6453 104.805 40.0083C103.813 40.3713 102.797 40.5527 101.756 40.5527C100.909 40.5527 100.063 40.4196 99.2157 40.1535C98.3688 39.9115 97.6066 39.5365 96.9291 39.0283C96.2516 38.5202 95.7071 37.8911 95.2958 37.141C94.8845 36.3667 94.6788 35.4714 94.6788 34.4551C94.6788 33.4146 94.8482 32.5194 95.1869 31.7692C95.5499 31.0191 96.0338 30.4142 96.6387 29.9545C97.2678 29.4705 97.9938 29.1197 98.8165 28.9019C99.6633 28.6841 100.583 28.5753 101.575 28.5753C102.446 28.5753 103.365 28.6478 104.333 28.793C105.325 28.9382 106.33 29.1681 107.346 29.4826V29.3375C107.394 29.1439 107.418 28.9745 107.418 28.8293C107.418 28.6841 107.418 28.5269 107.418 28.3575C107.418 27.7042 107.285 27.1355 107.019 26.6516C106.777 26.1677 106.451 25.7684 106.039 25.4538C105.628 25.1393 105.156 24.9094 104.624 24.7642C104.116 24.5949 103.583 24.5102 103.027 24.5102C102.494 24.5102 101.974 24.5707 101.466 24.6916C100.958 24.8126 100.498 25.0062 100.087 25.2724C99.6754 25.5385 99.3367 25.8773 99.0705 26.2886C98.8044 26.6758 98.6592 27.1476 98.635 27.7042H95.2958C95.3684 26.6395 95.6225 25.7079 96.058 24.9094C96.5177 24.1109 97.0864 23.4576 97.7639 22.9495C98.4656 22.4171 99.252 22.0179 100.123 21.7517C100.994 21.4856 101.889 21.3525 102.809 21.3525C103.874 21.3525 104.878 21.4977 105.821 21.788C106.765 22.0784 107.588 22.5381 108.29 23.1672C109.015 23.7964 109.584 24.607 109.995 25.599C110.431 26.5669 110.661 27.7526 110.685 29.156V29.3375C111.048 29.2891 111.411 29.2286 111.774 29.156C112.161 29.0834 112.56 28.9987 112.972 28.9019V32.3137L110.721 32.6766ZM107.382 32.7492C107.237 32.7492 106.971 32.7008 106.584 32.604C106.221 32.5073 105.785 32.4105 105.277 32.3137C104.793 32.1927 104.261 32.0838 103.68 31.987C103.124 31.8902 102.579 31.8418 102.047 31.8418C101.635 31.8418 101.188 31.8902 100.704 31.987C100.244 32.0596 99.8085 32.2048 99.3972 32.4226C99.01 32.6403 98.6834 32.9186 98.4172 33.2574C98.151 33.5961 98.018 34.0196 98.018 34.5277C98.018 34.939 98.1268 35.3141 98.3446 35.6529C98.5866 35.9916 98.9011 36.2941 99.2883 36.5602C99.6754 36.8022 100.123 36.9958 100.631 37.141C101.139 37.2861 101.684 37.3587 102.265 37.3587C102.942 37.3587 103.583 37.2499 104.188 37.0321C104.793 36.7901 105.325 36.4997 105.785 36.161C106.269 35.8222 106.644 35.4593 106.91 35.0721C107.201 34.685 107.358 34.3341 107.382 34.0196V32.7492ZM119.021 24.5102C119.19 23.8569 119.505 23.3245 119.964 22.9132C120.448 22.4776 120.957 22.151 121.489 21.9332C122.045 21.6912 122.59 21.5339 123.122 21.4614C123.655 21.3646 124.066 21.3162 124.356 21.3162C125.735 21.3162 126.921 21.4856 127.913 21.8243C128.929 22.1631 129.752 22.6954 130.381 23.4213C131.035 24.1472 131.519 25.103 131.833 26.2886C132.148 27.4501 132.305 28.8656 132.305 30.5352V40.1535H129.038V30.4263C129.038 29.6762 128.978 28.9624 128.857 28.2849C128.736 27.6074 128.506 27.0025 128.167 26.4701C127.828 25.9378 127.369 25.5143 126.788 25.1998C126.207 24.861 125.445 24.6554 124.501 24.5828C123.848 24.5828 123.195 24.7037 122.541 24.9457C121.888 25.1877 121.307 25.5506 120.799 26.0346C120.291 26.4943 119.868 27.0629 119.529 27.7405C119.214 28.418 119.057 29.1923 119.057 30.0634V40.1535H115.754V21.9695H119.057L119.021 24.5102ZM135.215 30.8982C135.215 29.7367 135.408 28.5994 135.796 27.4864C136.207 26.3733 136.8 25.3813 137.574 24.5102C138.348 23.6149 139.292 22.9011 140.405 22.3687C141.542 21.8364 142.849 21.5702 144.325 21.5702C144.93 21.5702 145.595 21.6186 146.321 21.7154C147.071 21.8122 147.652 21.9816 148.063 22.2236V16.7067H151.439V39.1009C150.447 39.5607 149.418 39.8994 148.354 40.1172C147.313 40.3592 146.285 40.4801 145.269 40.4801C143.938 40.4801 142.667 40.2745 141.458 39.8631C140.248 39.4518 139.171 38.8468 138.227 38.0484C137.308 37.2499 136.57 36.2578 136.013 35.0721C135.481 33.8623 135.215 32.471 135.215 30.8982ZM138.336 31.4426C138.409 32.4105 138.627 33.2453 138.989 33.947C139.377 34.6487 139.861 35.2294 140.441 35.6891C141.046 36.1489 141.712 36.4876 142.438 36.7054C143.188 36.9232 143.962 37.0321 144.76 37.0321C145.317 37.0321 145.886 36.9837 146.466 36.8869C147.047 36.7659 147.579 36.6086 148.063 36.4151V25.6353C147.7 25.4418 147.216 25.2966 146.612 25.1998C146.007 25.103 145.498 25.0546 145.087 25.0546C143.006 25.0546 141.361 25.5506 140.151 26.5427C138.941 27.5106 138.336 29.1439 138.336 31.4426ZM156.859 40.1172C156.351 40.1172 155.928 39.9599 155.589 39.6453C155.25 39.3066 155.081 38.8952 155.081 38.4113C155.081 37.9274 155.25 37.5281 155.589 37.2136C155.928 36.8748 156.351 36.7054 156.859 36.7054C157.343 36.7054 157.755 36.8748 158.093 37.2136C158.456 37.5281 158.638 37.9274 158.638 38.4113C158.638 38.8952 158.456 39.3066 158.093 39.6453C157.755 39.9599 157.343 40.1172 156.859 40.1172ZM165.524 24.5102C165.694 23.8569 166.008 23.3245 166.468 22.9132C166.952 22.4776 167.46 22.151 167.992 21.9332C168.549 21.6912 169.093 21.5339 169.626 21.4614C170.158 21.3646 170.569 21.3162 170.86 21.3162C172.239 21.3162 173.425 21.4856 174.417 21.8243C175.433 22.1631 176.256 22.6954 176.885 23.4213C177.538 24.1472 178.022 25.103 178.337 26.2886C178.651 27.4501 178.808 28.8656 178.808 30.5352V40.1535H175.542V30.4263C175.542 29.6762 175.481 28.9624 175.36 28.2849C175.239 27.6074 175.009 27.0025 174.671 26.4701C174.332 25.9378 173.872 25.5143 173.291 25.1998C172.711 24.861 171.949 24.6554 171.005 24.5828C170.352 24.5828 169.698 24.7037 169.045 24.9457C168.392 25.1877 167.811 25.5506 167.303 26.0346C166.795 26.4943 166.371 27.0629 166.032 27.7405C165.718 28.418 165.561 29.1923 165.561 30.0634V40.1535H162.258V21.9695H165.561L165.524 24.5102ZM198.305 32.6766C198.305 33.5961 198.305 34.5035 198.305 35.3988C198.305 36.2699 198.293 37.0563 198.269 37.758C198.269 38.4355 198.269 38.992 198.269 39.4276C198.269 39.8389 198.269 40.0567 198.269 40.0809H194.93V38.1572C194.228 39.0283 193.381 39.6453 192.389 40.0083C191.397 40.3713 190.381 40.5527 189.34 40.5527C188.493 40.5527 187.646 40.4196 186.8 40.1535C185.953 39.9115 185.191 39.5365 184.513 39.0283C183.835 38.5202 183.291 37.8911 182.88 37.141C182.468 36.3667 182.263 35.4714 182.263 34.4551C182.263 33.4146 182.432 32.5194 182.771 31.7692C183.134 31.0191 183.618 30.4142 184.223 29.9545C184.852 29.4705 185.578 29.1197 186.4 28.9019C187.247 28.6841 188.167 28.5753 189.159 28.5753C190.03 28.5753 190.949 28.6478 191.917 28.793C192.909 28.9382 193.913 29.1681 194.93 29.4826V29.3375C194.978 29.1439 195.002 28.9745 195.002 28.8293C195.002 28.6841 195.002 28.5269 195.002 28.3575C195.002 27.7042 194.869 27.1355 194.603 26.6516C194.361 26.1677 194.034 25.7684 193.623 25.4538C193.212 25.1393 192.74 24.9094 192.208 24.7642C191.699 24.5949 191.167 24.5102 190.611 24.5102C190.078 24.5102 189.558 24.5707 189.05 24.6916C188.542 24.8126 188.082 25.0062 187.671 25.2724C187.259 25.5385 186.921 25.8773 186.654 26.2886C186.388 26.6758 186.243 27.1476 186.219 27.7042H182.88C182.952 26.6395 183.206 25.7079 183.642 24.9094C184.102 24.1109 184.67 23.4576 185.348 22.9495C186.049 22.4171 186.836 22.0179 187.707 21.7517C188.578 21.4856 189.473 21.3525 190.393 21.3525C191.458 21.3525 192.462 21.4977 193.405 21.788C194.349 22.0784 195.172 22.5381 195.873 23.1672C196.599 23.7964 197.168 24.607 197.579 25.599C198.015 26.5669 198.245 27.7526 198.269 29.156V29.3375C198.632 29.2891 198.995 29.2286 199.358 29.156C199.745 29.0834 200.144 28.9987 200.556 28.9019V32.3137L198.305 32.6766ZM194.966 32.7492C194.821 32.7492 194.555 32.7008 194.168 32.604C193.805 32.5073 193.369 32.4105 192.861 32.3137C192.377 32.1927 191.845 32.0838 191.264 31.987C190.707 31.8902 190.163 31.8418 189.631 31.8418C189.219 31.8418 188.772 31.8902 188.288 31.987C187.828 32.0596 187.392 32.2048 186.981 32.4226C186.594 32.6403 186.267 32.9186 186.001 33.2574C185.735 33.5961 185.602 34.0196 185.602 34.5277C185.602 34.939 185.711 35.3141 185.929 35.6529C186.17 35.9916 186.485 36.2941 186.872 36.5602C187.259 36.8022 187.707 36.9958 188.215 37.141C188.723 37.2861 189.268 37.3587 189.848 37.3587C190.526 37.3587 191.167 37.2499 191.772 37.0321C192.377 36.7901 192.909 36.4997 193.369 36.161C193.853 35.8222 194.228 35.4593 194.494 35.0721C194.785 34.685 194.942 34.3341 194.966 34.0196V32.7492ZM207.137 23.7117C207.403 23.2035 207.742 22.7922 208.153 22.4776C208.589 22.1631 209.025 21.9211 209.46 21.7517C209.92 21.5823 210.355 21.4735 210.767 21.4251C211.202 21.3525 211.553 21.3162 211.819 21.3162C213.561 21.3162 214.965 21.5339 216.03 21.9695C217.094 22.405 217.869 22.9616 218.352 23.6391C218.691 23.1793 219.09 22.8043 219.55 22.5139C220.034 22.1994 220.518 21.9574 221.002 21.788C221.486 21.5944 221.934 21.4735 222.345 21.4251C222.756 21.3525 223.059 21.3162 223.252 21.3162C224.511 21.3162 225.587 21.4856 226.483 21.8243C227.402 22.1389 228.152 22.6712 228.733 23.4213C229.314 24.1472 229.737 25.103 230.003 26.2886C230.294 27.4501 230.439 28.8656 230.439 30.5352V40.0809H227.172V30.4263C227.172 29.6762 227.136 28.9624 227.063 28.2849C226.991 27.5832 226.821 26.9662 226.555 26.4338C226.313 25.9015 225.938 25.478 225.43 25.1635C224.946 24.8247 224.269 24.6312 223.398 24.5828C222.914 24.5828 222.405 24.6553 221.873 24.8005C221.365 24.9457 220.893 25.1998 220.458 25.5627C220.046 25.9015 219.695 26.3733 219.405 26.9783C219.139 27.5832 219.006 28.3333 219.006 29.2286V40.0809H215.739V29.2286C215.739 28.793 215.703 28.3212 215.63 27.813C215.558 27.2807 215.388 26.7847 215.122 26.3249C214.88 25.8652 214.505 25.478 213.997 25.1635C213.513 24.8247 212.836 24.6312 211.964 24.5828C211.384 24.5828 210.803 24.6674 210.222 24.8368C209.642 24.982 209.121 25.2603 208.662 25.6716C208.202 26.0588 207.827 26.6153 207.536 27.3412C207.27 28.0429 207.137 28.9503 207.137 30.0634V40.1535H203.834V21.9695H207.137V23.7117ZM250.203 38.2298C249.356 38.8348 248.364 39.3792 247.226 39.8631C246.089 40.3229 244.795 40.5527 243.343 40.5527C242.157 40.5527 241.056 40.3834 240.04 40.0446C239.048 39.6816 238.177 39.1735 237.427 38.5202C236.701 37.8669 236.108 37.0563 235.648 36.0884C235.213 35.1205 234.971 34.0196 234.922 32.7855V32.604C234.535 32.6524 234.136 32.6887 233.724 32.7129C233.337 32.7129 232.95 32.7855 232.563 32.9307V29.6278C232.974 29.5068 233.374 29.4342 233.761 29.41C234.148 29.3858 234.547 29.3496 234.958 29.3012C235.031 28.1397 235.297 27.075 235.757 26.1072C236.217 25.1393 236.834 24.3045 237.608 23.6028C238.382 22.9011 239.302 22.3566 240.367 21.9695C241.431 21.5823 242.605 21.3888 243.887 21.3888C245.266 21.3888 246.513 21.6912 247.626 22.2961C248.472 22.7801 249.174 23.4455 249.731 24.2924C250.287 25.1393 250.566 26.0951 250.566 27.1597C250.566 28.2728 250.19 29.3133 249.44 30.2811C248.666 31.2974 247.734 31.9628 246.646 32.2774C245.581 32.5677 244.419 32.7129 243.161 32.7129C242.605 32.7129 241.951 32.6887 241.201 32.6403C240.475 32.5919 239.81 32.5677 239.205 32.5677C239.036 32.5677 238.878 32.5798 238.733 32.604C238.588 32.604 238.455 32.6161 238.334 32.6403V32.8218C238.334 34.2494 238.806 35.3383 239.749 36.0884C240.717 36.8143 241.915 37.1773 243.343 37.1773C244.069 37.1773 244.734 37.1168 245.339 36.9958C245.968 36.8748 246.549 36.7054 247.081 36.4876C247.638 36.2699 248.17 36.0158 248.678 35.7254C249.186 35.4351 249.694 35.1205 250.203 34.7818V38.2298ZM244.323 24.5465C243.573 24.5465 242.847 24.6433 242.145 24.8368C241.467 25.0304 240.85 25.3208 240.294 25.7079C239.762 26.0951 239.314 26.5911 238.951 27.196C238.612 27.7768 238.407 28.4785 238.334 29.3012L240.294 29.2286C240.705 29.277 241.201 29.3133 241.782 29.3375C242.387 29.3375 242.968 29.3375 243.524 29.3375C244.008 29.3375 244.492 29.3133 244.976 29.2649C245.46 29.1923 245.883 29.0713 246.246 28.9019C246.634 28.7083 246.936 28.4543 247.154 28.1397C247.396 27.8251 247.517 27.4259 247.517 26.942C247.517 26.0709 247.19 25.4538 246.537 25.0909C245.883 24.7279 245.145 24.5465 244.323 24.5465Z" fill="url(#paint0_linear_1_40)"/>
<defs>
<linearGradient id="paint0_linear_1_40" x1="157.461" y1="15.1172" x2="157" y2="81" gradientUnits="userSpaceOnUse">
<stop stop-color="#007A4F"/>
<stop offset="0.40266" stop-color="#80CA7B"/>
</linearGradient>
</defs>
</svg>
